<svg width="247" height="30" viewBox="0 0 247 30" fill="none" xmlns="http://www.w3.org/2000/svg">
<rect width="247" height="30" rx="11" fill="#D9D9D9"/>
<path d="M15.4766 16.7578H12.5156V15.2031H15.4766C15.9922 15.2031 16.4089 15.1198 16.7266 14.9531C17.0443 14.7865 17.276 14.5573 17.4219 14.2656C17.5729 13.9688 17.6484 13.6302 17.6484 13.25C17.6484 12.8906 17.5729 12.5547 17.4219 12.2422C17.276 11.9245 17.0443 11.6693 16.7266 11.4766C16.4089 11.2839 15.9922 11.1875 15.4766 11.1875H13.1172V21H11.1562V9.625H15.4766C16.3568 9.625 17.1042 9.78125 17.7188 10.0938C18.3385 10.401 18.8099 10.8281 19.1328 11.375C19.4557 11.9167 19.6172 12.5365 19.6172 13.2344C19.6172 13.9688 19.4557 14.599 19.1328 15.125C18.8099 15.651 18.3385 16.0547 17.7188 16.3359C17.1042 16.6172 16.3568 16.7578 15.4766 16.7578ZM23.0781 14.1562V21H21.1953V12.5469H22.9922L23.0781 14.1562ZM25.6641 12.4922L25.6484 14.2422C25.5339 14.2214 25.4089 14.2057 25.2734 14.1953C25.1432 14.1849 25.013 14.1797 24.8828 14.1797C24.5599 14.1797 24.276 14.2266 24.0312 14.3203C23.7865 14.4089 23.5807 14.5391 23.4141 14.7109C23.2526 14.8776 23.1276 15.0807 23.0391 15.3203C22.9505 15.5599 22.8984 15.8281 22.8828 16.125L22.4531 16.1562C22.4531 15.625 22.5052 15.1328 22.6094 14.6797C22.7135 14.2266 22.8698 13.8281 23.0781 13.4844C23.2917 13.1406 23.5573 12.8724 23.875 12.6797C24.1979 12.487 24.5703 12.3906 24.9922 12.3906C25.1068 12.3906 25.2292 12.401 25.3594 12.4219C25.4948 12.4427 25.5964 12.4661 25.6641 12.4922ZM26.2812 16.8672V16.6875C26.2812 16.0781 26.3698 15.513 26.5469 14.9922C26.724 14.4661 26.9792 14.0104 27.3125 13.625C27.651 13.2344 28.0625 12.9323 28.5469 12.7188C29.0365 12.5 29.5885 12.3906 30.2031 12.3906C30.8229 12.3906 31.375 12.5 31.8594 12.7188C32.349 12.9323 32.763 13.2344 33.1016 13.625C33.4401 14.0104 33.6979 14.4661 33.875 14.9922C34.0521 15.513 34.1406 16.0781 34.1406 16.6875V16.8672C34.1406 17.4766 34.0521 18.0417 33.875 18.5625C33.6979 19.0833 33.4401 19.5391 33.1016 19.9297C32.763 20.3151 32.3516 20.6172 31.8672 20.8359C31.3828 21.0495 30.8333 21.1562 30.2188 21.1562C29.599 21.1562 29.0443 21.0495 28.5547 20.8359C28.0703 20.6172 27.6589 20.3151 27.3203 19.9297C26.9818 19.5391 26.724 19.0833 26.5469 18.5625C26.3698 18.0417 26.2812 17.4766 26.2812 16.8672ZM28.1641 16.6875V16.8672C28.1641 17.2474 28.2031 17.6068 28.2812 17.9453C28.3594 18.2839 28.4818 18.5807 28.6484 18.8359C28.8151 19.0911 29.0286 19.2917 29.2891 19.4375C29.5495 19.5833 29.8594 19.6562 30.2188 19.6562C30.5677 19.6562 30.8698 19.5833 31.125 19.4375C31.3854 19.2917 31.599 19.0911 31.7656 18.8359C31.9323 18.5807 32.0547 18.2839 32.1328 17.9453C32.2161 17.6068 32.2578 17.2474 32.2578 16.8672V16.6875C32.2578 16.3125 32.2161 15.9583 32.1328 15.625C32.0547 15.2865 31.9297 14.987 31.7578 14.7266C31.5911 14.4661 31.3776 14.263 31.1172 14.1172C30.862 13.9661 30.5573 13.8906 30.2031 13.8906C29.849 13.8906 29.5417 13.9661 29.2812 14.1172C29.026 14.263 28.8151 14.4661 28.6484 14.7266C28.4818 14.987 28.3594 15.2865 28.2812 15.625C28.2031 15.9583 28.1641 16.3125 28.1641 16.6875ZM39.1719 19.6562C39.4792 19.6562 39.7552 19.5964 40 19.4766C40.25 19.3516 40.4505 19.1797 40.6016 18.9609C40.7578 18.7422 40.8438 18.4896 40.8594 18.2031H42.6328C42.6224 18.75 42.4609 19.2474 42.1484 19.6953C41.8359 20.1432 41.4219 20.5 40.9062 20.7656C40.3906 21.026 39.8203 21.1562 39.1953 21.1562C38.5495 21.1562 37.987 21.0469 37.5078 20.8281C37.0286 20.6042 36.6302 20.2969 36.3125 19.9062C35.9948 19.5156 35.7552 19.0651 35.5938 18.5547C35.4375 18.0443 35.3594 17.4974 35.3594 16.9141V16.6406C35.3594 16.0573 35.4375 15.5104 35.5938 15C35.7552 14.4844 35.9948 14.0312 36.3125 13.6406C36.6302 13.25 37.0286 12.9453 37.5078 12.7266C37.987 12.5026 38.5469 12.3906 39.1875 12.3906C39.8646 12.3906 40.4583 12.526 40.9688 12.7969C41.4792 13.0625 41.8802 13.4349 42.1719 13.9141C42.4688 14.388 42.6224 14.9401 42.6328 15.5703H40.8594C40.8438 15.2578 40.7656 14.9766 40.625 14.7266C40.4896 14.4714 40.2969 14.2682 40.0469 14.1172C39.8021 13.9661 39.5078 13.8906 39.1641 13.8906C38.7839 13.8906 38.4688 13.9688 38.2188 14.125C37.9688 14.276 37.7734 14.4844 37.6328 14.75C37.4922 15.0104 37.3906 15.3047 37.3281 15.6328C37.2708 15.9557 37.2422 16.2917 37.2422 16.6406V16.9141C37.2422 17.263 37.2708 17.6016 37.3281 17.9297C37.3854 18.2578 37.4844 18.5521 37.625 18.8125C37.7708 19.0677 37.9688 19.2734 38.2188 19.4297C38.4688 19.5807 38.7865 19.6562 39.1719 19.6562ZM49.1641 19.0078V12.5469H51.0547V21H49.2734L49.1641 19.0078ZM49.4297 17.25L50.0625 17.2344C50.0625 17.8021 50 18.3255 49.875 18.8047C49.75 19.2786 49.5573 19.6927 49.2969 20.0469C49.0365 20.3958 48.7031 20.6693 48.2969 20.8672C47.8906 21.0599 47.4036 21.1562 46.8359 21.1562C46.4245 21.1562 46.0469 21.0964 45.7031 20.9766C45.3594 20.8568 45.0625 20.6719 44.8125 20.4219C44.5677 20.1719 44.3776 19.8464 44.2422 19.4453C44.1068 19.0443 44.0391 18.5651 44.0391 18.0078V12.5469H45.9219V18.0234C45.9219 18.3307 45.9583 18.5885 46.0312 18.7969C46.1042 19 46.2031 19.1641 46.3281 19.2891C46.4531 19.4141 46.599 19.5026 46.7656 19.5547C46.9323 19.6068 47.1094 19.6328 47.2969 19.6328C47.8333 19.6328 48.2552 19.5286 48.5625 19.3203C48.875 19.1068 49.0964 18.8203 49.2266 18.4609C49.362 18.1016 49.4297 17.6979 49.4297 17.25ZM54.875 14.1562V21H52.9922V12.5469H54.7891L54.875 14.1562ZM57.4609 12.4922L57.4453 14.2422C57.3307 14.2214 57.2057 14.2057 57.0703 14.1953C56.9401 14.1849 56.8099 14.1797 56.6797 14.1797C56.3568 14.1797 56.0729 14.2266 55.8281 14.3203C55.5833 14.4089 55.3776 14.5391 55.2109 14.7109C55.0495 14.8776 54.9245 15.0807 54.8359 15.3203C54.7474 15.5599 54.6953 15.8281 54.6797 16.125L54.25 16.1562C54.25 15.625 54.3021 15.1328 54.4062 14.6797C54.5104 14.2266 54.6667 13.8281 54.875 13.4844C55.0885 13.1406 55.3542 12.8724 55.6719 12.6797C55.9948 12.487 56.3672 12.3906 56.7891 12.3906C56.9036 12.3906 57.026 12.401 57.1562 12.4219C57.2917 12.4427 57.3932 12.4661 57.4609 12.4922ZM63.125 19.3047V15.2734C63.125 14.9714 63.0703 14.7109 62.9609 14.4922C62.8516 14.2734 62.6849 14.1042 62.4609 13.9844C62.2422 13.8646 61.9661 13.8047 61.6328 13.8047C61.3255 13.8047 61.0599 13.8568 60.8359 13.9609C60.612 14.0651 60.4375 14.2057 60.3125 14.3828C60.1875 14.5599 60.125 14.7604 60.125 14.9844H58.25C58.25 14.651 58.3307 14.3281 58.4922 14.0156C58.6536 13.7031 58.888 13.4245 59.1953 13.1797C59.5026 12.9349 59.8698 12.7422 60.2969 12.6016C60.724 12.4609 61.2031 12.3906 61.7344 12.3906C62.3698 12.3906 62.9323 12.4974 63.4219 12.7109C63.9167 12.9245 64.3047 13.2474 64.5859 13.6797C64.8724 14.1068 65.0156 14.6432 65.0156 15.2891V19.0469C65.0156 19.4323 65.0417 19.7786 65.0938 20.0859C65.151 20.388 65.2318 20.651 65.3359 20.875V21H63.4062C63.3177 20.7969 63.2474 20.5391 63.1953 20.2266C63.1484 19.9089 63.125 19.6016 63.125 19.3047ZM63.3984 15.8594L63.4141 17.0234H62.0625C61.7135 17.0234 61.4062 17.0573 61.1406 17.125C60.875 17.1875 60.6536 17.2812 60.4766 17.4062C60.2995 17.5312 60.1667 17.6823 60.0781 17.8594C59.9896 18.0365 59.9453 18.237 59.9453 18.4609C59.9453 18.6849 59.9974 18.8906 60.1016 19.0781C60.2057 19.2604 60.3568 19.4036 60.5547 19.5078C60.7578 19.612 61.0026 19.6641 61.2891 19.6641C61.6745 19.6641 62.0104 19.5859 62.2969 19.4297C62.5885 19.2682 62.8177 19.0729 62.9844 18.8438C63.151 18.6094 63.2396 18.388 63.25 18.1797L63.8594 19.0156C63.7969 19.2292 63.6901 19.4583 63.5391 19.7031C63.388 19.9479 63.1901 20.1823 62.9453 20.4062C62.7057 20.625 62.4167 20.8047 62.0781 20.9453C61.7448 21.0859 61.3594 21.1562 60.9219 21.1562C60.3698 21.1562 59.8776 21.0469 59.4453 20.8281C59.013 20.6042 58.6745 20.3047 58.4297 19.9297C58.1849 19.5495 58.0625 19.1198 58.0625 18.6406C58.0625 18.1927 58.1458 17.7969 58.3125 17.4531C58.4844 17.1042 58.7344 16.8125 59.0625 16.5781C59.3958 16.3438 59.8021 16.1667 60.2812 16.0469C60.7604 15.9219 61.3073 15.8594 61.9219 15.8594H63.3984ZM68.875 14.1562V21H66.9922V12.5469H68.7891L68.875 14.1562ZM71.4609 12.4922L71.4453 14.2422C71.3307 14.2214 71.2057 14.2057 71.0703 14.1953C70.9401 14.1849 70.8099 14.1797 70.6797 14.1797C70.3568 14.1797 70.0729 14.2266 69.8281 14.3203C69.5833 14.4089 69.3776 14.5391 69.2109 14.7109C69.0495 14.8776 68.9245 15.0807 68.8359 15.3203C68.7474 15.5599 68.6953 15.8281 68.6797 16.125L68.25 16.1562C68.25 15.625 68.3021 15.1328 68.4062 14.6797C68.5104 14.2266 68.6667 13.8281 68.875 13.4844C69.0885 13.1406 69.3542 12.8724 69.6719 12.6797C69.9948 12.487 70.3672 12.3906 70.7891 12.3906C70.9036 12.3906 71.026 12.401 71.1562 12.4219C71.2917 12.4427 71.3932 12.4661 71.4609 12.4922ZM78.6406 9V21H76.75V9H78.6406ZM82.7188 12.5469V21H80.8281V12.5469H82.7188ZM80.7031 10.3281C80.7031 10.0417 80.7969 9.80469 80.9844 9.61719C81.1771 9.42448 81.4427 9.32812 81.7812 9.32812C82.1146 9.32812 82.3776 9.42448 82.5703 9.61719C82.763 9.80469 82.8594 10.0417 82.8594 10.3281C82.8594 10.6094 82.763 10.8438 82.5703 11.0312C82.3776 11.2188 82.1146 11.3125 81.7812 11.3125C81.4427 11.3125 81.1771 11.2188 80.9844 11.0312C80.7969 10.8438 80.7031 10.6094 80.7031 10.3281ZM87.5312 19.5078L89.6016 12.5469H91.5547L88.6172 21H87.3984L87.5312 19.5078ZM85.9453 12.5469L88.0547 19.5391L88.1562 21H86.9375L83.9844 12.5469H85.9453ZM94.6094 14.1562V21H92.7266V12.5469H94.5234L94.6094 14.1562ZM97.1953 12.4922L97.1797 14.2422C97.0651 14.2214 96.9401 14.2057 96.8047 14.1953C96.6745 14.1849 96.5443 14.1797 96.4141 14.1797C96.0911 14.1797 95.8073 14.2266 95.5625 14.3203C95.3177 14.4089 95.112 14.5391 94.9453 14.7109C94.7839 14.8776 94.6589 15.0807 94.5703 15.3203C94.4818 15.5599 94.4297 15.8281 94.4141 16.125L93.9844 16.1562C93.9844 15.625 94.0365 15.1328 94.1406 14.6797C94.2448 14.2266 94.401 13.8281 94.6094 13.4844C94.8229 13.1406 95.0885 12.8724 95.4062 12.6797C95.7292 12.487 96.1016 12.3906 96.5234 12.3906C96.638 12.3906 96.7604 12.401 96.8906 12.4219C97.026 12.4427 97.1276 12.4661 97.1953 12.4922ZM97.8125 16.8672V16.6875C97.8125 16.0781 97.901 15.513 98.0781 14.9922C98.2552 14.4661 98.5104 14.0104 98.8438 13.625C99.1823 13.2344 99.5938 12.9323 100.078 12.7188C100.568 12.5 101.12 12.3906 101.734 12.3906C102.354 12.3906 102.906 12.5 103.391 12.7188C103.88 12.9323 104.294 13.2344 104.633 13.625C104.971 14.0104 105.229 14.4661 105.406 14.9922C105.583 15.513 105.672 16.0781 105.672 16.6875V16.8672C105.672 17.4766 105.583 18.0417 105.406 18.5625C105.229 19.0833 104.971 19.5391 104.633 19.9297C104.294 20.3151 103.883 20.6172 103.398 20.8359C102.914 21.0495 102.365 21.1562 101.75 21.1562C101.13 21.1562 100.576 21.0495 100.086 20.8359C99.6016 20.6172 99.1901 20.3151 98.8516 19.9297C98.513 19.5391 98.2552 19.0833 98.0781 18.5625C97.901 18.0417 97.8125 17.4766 97.8125 16.8672ZM99.6953 16.6875V16.8672C99.6953 17.2474 99.7344 17.6068 99.8125 17.9453C99.8906 18.2839 100.013 18.5807 100.18 18.8359C100.346 19.0911 100.56 19.2917 100.82 19.4375C101.081 19.5833 101.391 19.6562 101.75 19.6562C102.099 19.6562 102.401 19.5833 102.656 19.4375C102.917 19.2917 103.13 19.0911 103.297 18.8359C103.464 18.5807 103.586 18.2839 103.664 17.9453C103.747 17.6068 103.789 17.2474 103.789 16.8672V16.6875C103.789 16.3125 103.747 15.9583 103.664 15.625C103.586 15.2865 103.461 14.987 103.289 14.7266C103.122 14.4661 102.909 14.263 102.648 14.1172C102.393 13.9661 102.089 13.8906 101.734 13.8906C101.38 13.8906 101.073 13.9661 100.812 14.1172C100.557 14.263 100.346 14.4661 100.18 14.7266C100.013 14.987 99.8906 15.2865 99.8125 15.625C99.7344 15.9583 99.6953 16.3125 99.6953 16.6875ZM111.992 18.7109C111.992 18.5234 111.945 18.3542 111.852 18.2031C111.758 18.0469 111.578 17.9062 111.312 17.7812C111.052 17.6562 110.667 17.5417 110.156 17.4375C109.708 17.3385 109.297 17.2214 108.922 17.0859C108.552 16.9453 108.234 16.776 107.969 16.5781C107.703 16.3802 107.497 16.1458 107.352 15.875C107.206 15.6042 107.133 15.2917 107.133 14.9375C107.133 14.5938 107.208 14.2682 107.359 13.9609C107.51 13.6536 107.727 13.3828 108.008 13.1484C108.289 12.9141 108.63 12.7292 109.031 12.5938C109.438 12.4583 109.891 12.3906 110.391 12.3906C111.099 12.3906 111.706 12.5104 112.211 12.75C112.721 12.9844 113.112 13.3047 113.383 13.7109C113.654 14.112 113.789 14.5651 113.789 15.0703H111.906C111.906 14.8464 111.849 14.638 111.734 14.4453C111.625 14.2474 111.458 14.0885 111.234 13.9688C111.01 13.8438 110.729 13.7812 110.391 13.7812C110.068 13.7812 109.799 13.8333 109.586 13.9375C109.378 14.0365 109.221 14.1667 109.117 14.3281C109.018 14.4896 108.969 14.6667 108.969 14.8594C108.969 15 108.995 15.1276 109.047 15.2422C109.104 15.3516 109.198 15.4531 109.328 15.5469C109.458 15.6354 109.635 15.7188 109.859 15.7969C110.089 15.875 110.375 15.9505 110.719 16.0234C111.365 16.1589 111.919 16.3333 112.383 16.5469C112.852 16.7552 113.211 17.026 113.461 17.3594C113.711 17.6875 113.836 18.1042 113.836 18.6094C113.836 18.9844 113.755 19.3281 113.594 19.6406C113.438 19.9479 113.208 20.2161 112.906 20.4453C112.604 20.6693 112.242 20.8438 111.82 20.9688C111.404 21.0938 110.935 21.1562 110.414 21.1562C109.648 21.1562 109 21.0208 108.469 20.75C107.938 20.474 107.534 20.1224 107.258 19.6953C106.987 19.263 106.852 18.8151 106.852 18.3516H108.672C108.693 18.7005 108.789 18.9792 108.961 19.1875C109.138 19.3906 109.357 19.5391 109.617 19.6328C109.883 19.7214 110.156 19.7656 110.438 19.7656C110.776 19.7656 111.06 19.7214 111.289 19.6328C111.518 19.5391 111.693 19.4141 111.812 19.2578C111.932 19.0964 111.992 18.9141 111.992 18.7109Z" fill="#A3A3A3"/>
<path d="M228.275 17.0503C229.122 15.894 229.501 14.4605 229.337 13.0364C229.173 11.6123 228.477 10.3028 227.389 9.36976C226.301 8.43673 224.901 7.94903 223.468 8.00422C222.036 8.05942 220.677 8.65344 219.664 9.66745C218.651 10.6815 218.058 12.0407 218.004 13.4731C217.95 14.9056 218.439 16.3058 219.372 17.3934C220.306 18.481 221.616 19.176 223.04 19.3392C224.464 19.5024 225.897 19.1219 227.052 18.2737C227.078 18.3087 227.106 18.3422 227.137 18.3743L230.506 21.7434C230.67 21.9076 230.892 21.9999 231.125 22C231.357 22.0001 231.579 21.9079 231.743 21.7439C231.908 21.5798 232 21.3572 232 21.125C232 20.8929 231.908 20.6702 231.744 20.506L228.375 17.1369C228.344 17.1053 228.31 17.0769 228.275 17.0503ZM228.5 13.6865C228.5 14.3185 228.376 14.9444 228.134 15.5283C227.892 16.1123 227.538 16.6428 227.091 17.0898C226.644 17.5367 226.114 17.8912 225.53 18.1331C224.946 18.375 224.32 18.4995 223.688 18.4995C223.056 18.4995 222.43 18.375 221.846 18.1331C221.263 17.8912 220.732 17.5367 220.285 17.0898C219.838 16.6428 219.484 16.1123 219.242 15.5283C219 14.9444 218.876 14.3185 218.876 13.6865C218.876 12.41 219.383 11.1858 220.285 10.2832C221.188 9.38055 222.412 8.87347 223.688 8.87347C224.964 8.87347 226.188 9.38055 227.091 10.2832C227.993 11.1858 228.5 12.41 228.5 13.6865Z" fill="#A3A3A3"/>
</svg>
