<svg width="14" height="17" viewBox="0 0 14 17" fill="none" xmlns="http://www.w3.org/2000/svg">
<path d="M9.92119 1V5.82143L8.5 4.75L7 5.82143V1M9.92119 1C8.90144 1 8.54695 1 7 1M9.92119 1C10.3974 1 11.6792 1 12.1878 1.80357M10.6 15.4643C9.16 15.4643 4.8 15.4643 2.8 15.4643M10.6 15.4643C11.2 15.4643 12.4 15.4643 12.4 13.8571V2.60714C12.4 2.27559 12.32 2.01244 12.1878 1.80357M10.6 15.4643H2.8M2.8 15.4643C2.38398 15.4643 1.67952 15.4643 1.2866 14.9286M7 1C5.51299 1 3.50578 1 2.8 1C2.2 1 1 1 1 2.60714C1 5.73214 1 12.3571 1 13.8571C1 14.35 1.11283 14.6917 1.2866 14.9286M1.2866 14.9286C1.3 15.4643 1.6 16 2.8 16H10.6C12.4 16 13 15.4643 13 13.8571V2.60714C12.9586 2.33929 12.7381 1.80357 12.1878 1.80357" stroke="#272727"/>
</svg>
