<svg width="64" height="66" viewBox="0 0 64 66" fill="none" xmlns="http://www.w3.org/2000/svg">
<path d="M4.581 59.014C4.287 58.828 3.981 58.69 3.663 58.6C3.351 58.504 3.063 58.456 2.799 58.456C2.433 58.456 2.139 58.528 1.917 58.672C1.701 58.81 1.593 59.002 1.593 59.248C1.593 59.47 1.659 59.653 1.791 59.797C1.923 59.935 2.085 60.046 2.277 60.13C2.469 60.208 2.736 60.301 3.078 60.409C3.504 60.541 3.849 60.667 4.113 60.787C4.377 60.907 4.602 61.087 4.788 61.327C4.974 61.561 5.067 61.873 5.067 62.263C5.067 62.623 4.968 62.938 4.77 63.208C4.578 63.478 4.305 63.688 3.951 63.838C3.603 63.982 3.201 64.054 2.745 64.054C2.283 64.054 1.833 63.964 1.395 63.784C0.957 63.604 0.579 63.364 0.261 63.064L0.648 62.317C0.948 62.611 1.284 62.839 1.656 63.001C2.034 63.157 2.4 63.235 2.754 63.235C3.174 63.235 3.504 63.154 3.744 62.992C3.99 62.824 4.113 62.599 4.113 62.317C4.113 62.095 4.047 61.912 3.915 61.768C3.783 61.624 3.615 61.51 3.411 61.426C3.213 61.342 2.943 61.249 2.601 61.147C2.181 61.021 1.839 60.898 1.575 60.778C1.311 60.658 1.086 60.481 0.9 60.247C0.72 60.013 0.63 59.704 0.63 59.32C0.63 58.984 0.723 58.687 0.909 58.429C1.095 58.171 1.356 57.973 1.692 57.835C2.028 57.697 2.418 57.628 2.862 57.628C3.24 57.628 3.609 57.685 3.969 57.799C4.335 57.907 4.659 58.054 4.941 58.24L4.581 59.014ZM10.5769 59.239V64H9.7309V62.992C9.4189 63.67 8.8309 64.015 7.9669 64.027C7.4149 64.027 6.9829 63.865 6.6709 63.541C6.3589 63.211 6.2029 62.758 6.2029 62.182V59.239H7.0489V61.957C7.0489 62.359 7.1569 62.674 7.3729 62.902C7.5949 63.124 7.8979 63.235 8.2819 63.235C8.7259 63.229 9.0769 63.073 9.3349 62.767C9.5989 62.455 9.7309 62.059 9.7309 61.579V59.239H10.5769ZM14.8106 60.292C14.6126 60.172 14.3936 60.076 14.1536 60.004C13.9196 59.932 13.6946 59.896 13.4786 59.896C13.2266 59.896 13.0226 59.944 12.8666 60.04C12.7166 60.13 12.6416 60.271 12.6416 60.463C12.6416 60.655 12.7256 60.802 12.8936 60.904C13.0676 61 13.3286 61.099 13.6766 61.201C14.0066 61.297 14.2766 61.393 14.4866 61.489C14.6966 61.585 14.8736 61.726 15.0176 61.912C15.1676 62.098 15.2426 62.344 15.2426 62.65C15.2426 63.1 15.0716 63.442 14.7296 63.676C14.3936 63.91 13.9736 64.027 13.4696 64.027C13.1156 64.027 12.7706 63.97 12.4346 63.856C12.1046 63.742 11.8256 63.58 11.5976 63.37L11.9126 62.758C12.1106 62.938 12.3536 63.082 12.6416 63.19C12.9356 63.298 13.2206 63.352 13.4966 63.352C13.7726 63.352 13.9946 63.301 14.1626 63.199C14.3306 63.097 14.4146 62.941 14.4146 62.731C14.4146 62.515 14.3246 62.353 14.1446 62.245C13.9706 62.137 13.7036 62.029 13.3436 61.921C13.0256 61.831 12.7646 61.741 12.5606 61.651C12.3626 61.555 12.1916 61.417 12.0476 61.237C11.9096 61.057 11.8406 60.823 11.8406 60.535C11.8406 60.091 12.0026 59.758 12.3266 59.536C12.6506 59.314 13.0556 59.203 13.5416 59.203C13.8296 59.203 14.1116 59.245 14.3876 59.329C14.6696 59.407 14.9126 59.515 15.1166 59.653L14.8106 60.292ZM18.9053 63.685C18.5393 63.919 18.1673 64.036 17.7893 64.036C17.4113 64.036 17.1053 63.925 16.8713 63.703C16.6373 63.475 16.5203 63.133 16.5203 62.677V60.04H15.8453V59.401H16.5203V58.123H17.3663V59.401H18.8243V60.04H17.3663V62.524C17.3663 62.788 17.4143 62.977 17.5103 63.091C17.6063 63.205 17.7503 63.262 17.9423 63.262C18.1703 63.262 18.4163 63.187 18.6803 63.037L18.9053 63.685ZM21.7729 59.212C22.5109 59.212 23.0689 59.431 23.4469 59.869C23.8249 60.301 24.0139 60.904 24.0139 61.678C24.0139 61.798 24.0109 61.888 24.0049 61.948H20.2429C20.3089 62.374 20.4859 62.713 20.7739 62.965C21.0679 63.217 21.4279 63.343 21.8539 63.343C22.1359 63.343 22.3969 63.292 22.6369 63.19C22.8829 63.088 23.0959 62.944 23.2759 62.758L23.7349 63.235C23.5009 63.487 23.2189 63.682 22.8889 63.82C22.5589 63.958 22.1929 64.027 21.7909 64.027C21.3229 64.027 20.9059 63.928 20.5399 63.73C20.1799 63.526 19.8979 63.241 19.6939 62.875C19.4959 62.509 19.3969 62.092 19.3969 61.624C19.3969 61.156 19.4959 60.742 19.6939 60.382C19.8979 60.016 20.1799 59.731 20.5399 59.527C20.8999 59.317 21.3109 59.212 21.7729 59.212ZM23.2579 61.3C23.2339 60.868 23.0899 60.529 22.8259 60.283C22.5619 60.031 22.2139 59.905 21.7819 59.905C21.3619 59.905 21.0109 60.031 20.7289 60.283C20.4529 60.535 20.2879 60.874 20.2339 61.3H23.2579ZM27.8019 59.212C28.3599 59.212 28.7979 59.377 29.1159 59.707C29.4339 60.031 29.5929 60.481 29.5929 61.057V64H28.7559V61.282C28.7559 60.88 28.6419 60.568 28.4139 60.346C28.1919 60.118 27.8829 60.004 27.4869 60.004C27.0609 60.01 26.7129 60.148 26.4429 60.418C26.1789 60.682 26.0289 61.027 25.9929 61.453V64H25.1559V59.239H25.9929V60.247C26.3109 59.569 26.9139 59.224 27.8019 59.212ZM33.6445 63.685C33.2785 63.919 32.9065 64.036 32.5285 64.036C32.1505 64.036 31.8445 63.925 31.6105 63.703C31.3765 63.475 31.2595 63.133 31.2595 62.677V60.04H30.5845V59.401H31.2595V58.123H32.1055V59.401H33.5635V60.04H32.1055V62.524C32.1055 62.788 32.1535 62.977 32.2495 63.091C32.3455 63.205 32.4895 63.262 32.6815 63.262C32.9095 63.262 33.1555 63.187 33.4195 63.037L33.6445 63.685ZM38.8957 60.652C39.2137 60.718 39.4597 60.868 39.6337 61.102C39.8137 61.336 39.9037 61.618 39.9037 61.948C39.9037 62.362 39.7837 62.725 39.5437 63.037C39.3097 63.343 38.9797 63.58 38.5537 63.748C38.1277 63.916 37.6387 64 37.0867 64H33.9727L35.2327 57.691H38.2297C38.8717 57.691 39.3727 57.814 39.7327 58.06C40.0987 58.306 40.2817 58.636 40.2817 59.05C40.2817 59.422 40.1527 59.758 39.8947 60.058C39.6367 60.352 39.3037 60.55 38.8957 60.652ZM37.6357 60.202C37.8937 60.202 38.1037 60.136 38.2657 60.004C38.4277 59.866 38.5087 59.686 38.5087 59.464C38.5087 59.308 38.4547 59.188 38.3467 59.104C38.2387 59.02 38.0857 58.978 37.8877 58.978H36.6187L36.3757 60.202H37.6357ZM37.1317 62.722C37.4557 62.722 37.7167 62.65 37.9147 62.506C38.1127 62.362 38.2117 62.173 38.2117 61.939C38.2117 61.771 38.1397 61.639 37.9957 61.543C37.8517 61.447 37.6537 61.399 37.4017 61.399H36.1327L35.8717 62.722H37.1317ZM44.8876 57.592C45.4876 57.592 46.0216 57.721 46.4896 57.979C46.9636 58.231 47.3326 58.582 47.5966 59.032C47.8606 59.482 47.9926 59.989 47.9926 60.553C47.9926 61.207 47.8246 61.807 47.4886 62.353C47.1526 62.899 46.6966 63.331 46.1206 63.649C45.5446 63.961 44.9146 64.117 44.2306 64.117C43.6306 64.117 43.0936 63.988 42.6196 63.73C42.1516 63.472 41.7856 63.118 41.5216 62.668C41.2636 62.212 41.1346 61.699 41.1346 61.129C41.1346 60.469 41.3026 59.869 41.6386 59.329C41.9746 58.789 42.4276 58.366 42.9976 58.06C43.5736 57.748 44.2036 57.592 44.8876 57.592ZM44.7706 58.987C44.4346 58.987 44.1166 59.077 43.8166 59.257C43.5166 59.437 43.2766 59.683 43.0966 59.995C42.9166 60.307 42.8266 60.646 42.8266 61.012C42.8266 61.33 42.8956 61.618 43.0336 61.876C43.1716 62.134 43.3606 62.338 43.6006 62.488C43.8406 62.638 44.1046 62.713 44.3926 62.713C44.7226 62.713 45.0346 62.623 45.3286 62.443C45.6226 62.257 45.8566 62.008 46.0306 61.696C46.2046 61.384 46.2916 61.042 46.2916 60.67C46.2916 60.352 46.2256 60.067 46.0936 59.815C45.9616 59.557 45.7786 59.356 45.5446 59.212C45.3106 59.062 45.0526 58.987 44.7706 58.987ZM52.5623 57.592C53.1623 57.592 53.6963 57.721 54.1643 57.979C54.6383 58.231 55.0073 58.582 55.2713 59.032C55.5353 59.482 55.6673 59.989 55.6673 60.553C55.6673 61.207 55.4993 61.807 55.1633 62.353C54.8273 62.899 54.3713 63.331 53.7953 63.649C53.2193 63.961 52.5893 64.117 51.9053 64.117C51.3053 64.117 50.7683 63.988 50.2943 63.73C49.8263 63.472 49.4603 63.118 49.1963 62.668C48.9383 62.212 48.8093 61.699 48.8093 61.129C48.8093 60.469 48.9773 59.869 49.3133 59.329C49.6493 58.789 50.1023 58.366 50.6723 58.06C51.2483 57.748 51.8783 57.592 52.5623 57.592ZM52.4453 58.987C52.1093 58.987 51.7913 59.077 51.4913 59.257C51.1913 59.437 50.9513 59.683 50.7713 59.995C50.5913 60.307 50.5013 60.646 50.5013 61.012C50.5013 61.33 50.5703 61.618 50.7083 61.876C50.8463 62.134 51.0353 62.338 51.2753 62.488C51.5153 62.638 51.7793 62.713 52.0673 62.713C52.3973 62.713 52.7093 62.623 53.0033 62.443C53.2973 62.257 53.5313 62.008 53.7053 61.696C53.8793 61.384 53.9663 61.042 53.9663 60.67C53.9663 60.352 53.9003 60.067 53.7683 59.815C53.6363 59.557 53.4533 59.356 53.2193 59.212C52.9853 59.062 52.7273 58.987 52.4453 58.987ZM63.5202 57.691L60.6492 60.364L62.3502 64H60.4242L59.2992 61.615L58.2282 62.614L57.9492 64H56.3022L57.5622 57.691H59.2092L58.6692 60.4L61.5312 57.691H63.5202Z" fill="black"/>
<path fill-rule="evenodd" clip-rule="evenodd" d="M6 0C18.4465 0 30.5373 5.77025 32.671 14.8628C33.8564 10.7828 40.4945 2.7977 57.5639 3.49712V42.8398C49.5626 42.8398 35.3381 46.3369 32.671 52.4568C29.1149 45.4626 16.6684 42.8398 6 41.9655V0ZM32.7397 40.089C33.355 14.3741 38.2441 11.1808 53.1188 8.74281V38.4683C48.0809 38.7598 36.9384 40.7415 32.671 46.3369C29.1149 41.0912 16.6684 37.5941 10.4452 37.5941V6.11996C25.3269 8.5591 32.5201 14.0226 32.7397 40.089Z" fill="#061F1B"/>
<path d="M10.4452 6.11996V37.5941C16.6684 37.5941 29.1149 41.0912 32.671 46.3369C32.671 44.1184 32.6931 42.039 32.7397 40.089C32.5201 14.0226 25.3269 8.5591 10.4452 6.11996Z" fill="#0C623B"/>
<path d="M53.1188 38.4683V8.74281C38.2441 11.1808 33.355 14.3741 32.7397 40.089C32.7563 42.0523 32.7333 44.1324 32.671 46.3369C36.9384 40.7415 48.0809 38.7598 53.1188 38.4683Z" fill="#2E8B3E"/>
</svg>
